Coordinates
version=1
nRows=65
nColumns=12
inDegrees=yes

Units are S.I. units (second, meters, Newtons, ...)
Angles are in degrees

endheader
time	SC_y	SC_z	SC_x	AC_y	AC_z	AC_x	GH_y	GH_z	GH_yy	EL_x	PS_y
       0.0              -47.84           39.5          34.87          60.41          6.964         -7.337         -104.1          25.04          158.4          118.1          109.5
   0.04126              -47.84           39.5          34.87           60.4           6.96         -7.335         -104.0          25.05          158.3          118.1          109.5
   0.08251              -47.84          39.49          34.86           60.4          6.956         -7.333         -104.0          25.06          158.3          118.1          109.5
    0.1238              -47.83          39.49          34.86           60.4          6.952          -7.33         -104.0          25.07          158.2          118.1          109.5
     0.165              -47.83          39.49          34.85          60.39          6.948         -7.328         -104.0          25.08          158.2          118.1          109.5
    0.2063              -47.83          39.49          34.85          60.39          6.943         -7.325         -103.9          25.08          158.1          118.1          109.5
    0.2475              -47.82          39.48          34.84          60.39          6.938         -7.322         -103.9          25.09          158.1          118.1          109.5
    0.2888              -47.82          39.48          34.83          60.38          6.933         -7.319         -103.9          25.11          158.0          118.1          109.4
    0.3301              -47.82          39.48          34.83          60.38          6.927         -7.316         -103.8          25.12          157.9          118.1          109.4
    0.3713              -47.81          39.47          34.82          60.37          6.921         -7.313         -103.8          25.13          157.9          118.1          109.4
    0.4126              -47.81          39.47          34.81          60.37          6.914         -7.309         -103.8          25.14          157.8          118.1          109.4
    0.4538               -47.8          39.47           34.8          60.36          6.907         -7.305         -103.7          25.16          157.7          118.1          109.4
    0.4951               -47.8          39.46          34.79          60.36            6.9           -7.3         -103.7          25.17          157.6          118.1          109.4
    0.5363              -47.79          39.46          34.78          60.35          6.891         -7.296         -103.6          25.19          157.5          118.1          109.4
    0.5776              -47.78          39.45          34.77          60.34          6.883         -7.291         -103.6           25.2          157.4          118.0          109.3
    0.6189              -47.78          39.45          34.76          60.34          6.873         -7.285         -103.5          25.22          157.3          118.0          109.3
    0.6601              -47.77          39.44          34.74          60.33          6.862         -7.279         -103.4          25.24          157.2          118.0          109.3
    0.7014              -47.76          39.44          34.73          60.32          6.851         -7.273         -103.4          25.27          157.1          118.0          109.3
    0.7426              -47.75          39.43          34.71          60.31          6.838         -7.265         -103.3          25.29          156.9          118.0          109.3
    0.7839              -47.74          39.42           34.7           60.3          6.825         -7.258         -103.2          25.32          156.7          118.0          109.2
    0.8251              -47.73          39.42          34.68          60.29           6.81         -7.249         -103.1          25.35          156.6          118.0          109.2
    0.8664              -47.72          39.41          34.66          60.27          6.793         -7.239         -103.0          25.38          156.4          118.0          109.2
    0.9077              -47.71           39.4          34.63          60.26          6.775         -7.229         -102.9          25.42          156.2          117.9          109.1
    0.9489              -47.69          39.39          34.61          60.24          6.755         -7.217         -102.8          25.46          155.9          117.9          109.1
    0.9902              -47.67          39.37          34.58          60.22          6.732         -7.205         -102.6           25.5          155.7          117.9          109.0
     1.031              -47.66          39.36          34.55           60.2          6.707          -7.19         -102.5          25.55          155.4          117.9          109.0
     1.073              -47.64          39.35          34.51          60.18          6.679         -7.174         -102.3          25.61          155.0          117.8          108.9
     1.114              -47.61          39.33          34.47          60.16          6.647         -7.156         -102.1          25.67          154.7          117.8          108.9
     1.155              -47.59          39.31          34.43          60.13          6.611         -7.136         -101.9          25.74          154.3          117.8          108.8
     1.196              -47.56          39.29          34.37           60.1          6.571         -7.112         -101.6          25.82          153.8          117.7          108.7
     1.238              -47.53          39.27          34.32          60.06          6.524         -7.086         -101.3          25.91          153.2          117.7          108.6
     1.279              -47.49          39.24          34.25          60.02          6.471         -7.055         -101.0          26.02          152.6          117.6          108.5
      1.32              -47.44           39.2          34.17          59.97           6.41          -7.02         -100.6          26.14          151.9          117.5          108.4
     1.361              -47.39          39.17          34.08          59.91          6.338         -6.979         -100.2          26.28          151.1          117.5          108.2
     1.403              -47.33          39.12          33.97          59.85          6.255         -6.932         -99.66          26.45          150.1          117.4          108.0
     1.444              -47.26          39.07          33.85          59.77          6.156         -6.875         -99.05          26.64          149.0          117.3          107.8
     1.485              -47.18          39.01           33.7          59.68          6.039         -6.808         -98.32          26.88          147.6          117.1          107.6
     1.527              -47.07          38.93          33.52          59.56          5.899         -6.728         -97.45          27.15          146.0          117.0          107.3
     1.568              -46.95          38.85          33.31          59.43          5.729         -6.631          -96.4          27.49          144.0          116.8          106.9
     1.609               -46.8          38.74          33.04          59.27          5.522         -6.512         -95.11           27.9          141.6          116.6          106.5
      1.65              -46.62           38.6          32.72          59.06          5.266         -6.366         -93.52          28.41          138.6          116.3          106.0
     1.692              -46.39          38.43          32.32          58.81          4.947         -6.184         -91.54          29.04          134.9          116.0          105.3
     1.733               -46.1          38.22          31.81          58.49          4.545         -5.954         -89.05          29.83          130.2          115.6          104.5
     1.774              -45.73          37.95          31.16          58.09          4.034         -5.662         -85.88          30.85          124.2          115.0          103.4
     1.815              -45.26           37.6          30.33          57.57           3.38         -5.288         -81.82          32.14          116.6          114.3          102.1
     1.857              -44.65          37.16          29.26          56.91          2.541         -4.808         -76.61           33.8          106.8          113.4          100.3
     1.898              -43.88           36.6          27.91          56.06          1.469         -4.195         -69.95          35.93          94.35          112.3          98.07
     1.939              -42.91          35.88           26.2          54.99         0.1207         -3.424         -61.58           38.6          78.64          110.8          95.27
      1.98              -41.72          35.02          24.11          53.69         -1.522         -2.484         -51.39          41.85          59.51          109.1          91.85
     2.022              -40.35          34.01           21.7          52.19         -3.426         -1.395         -39.57          45.62          37.32          107.1          87.88
     2.063              -38.86          32.92          19.08          50.55         -5.488        -0.2162         -26.77          49.71           13.3          104.9          83.59
     2.104              -37.38          31.83          16.47          48.92         -7.549         0.9628         -13.97          53.79         -10.71          102.7           79.3
     2.145               -36.0          30.83          14.06          47.42         -9.454          2.052         -2.149          57.56          -32.9          100.6          75.33
     2.187              -34.82          29.96          11.97          46.12          -11.1          2.991          8.048          60.81         -52.03          98.88          71.91
     2.228              -33.85          29.25          10.26          45.05         -12.44          3.762          16.42          63.48         -67.74          97.44          69.11
     2.269              -33.08          28.68          8.904           44.2         -13.52          4.375          23.07          65.61         -80.23           96.3          66.88
      2.31              -32.47          28.24          7.839          43.54         -14.36          4.855          28.28          67.27         -90.01           95.4          65.13
     2.352               -32.0          27.89           7.01          43.02         -15.01          5.229          32.34          68.56         -97.62           94.7          63.77
     2.393              -31.63          27.62          6.362          42.62         -15.52          5.521          35.51          69.58         -103.6          94.16           62.7
     2.434              -31.34          27.41          5.853           42.3         -15.92          5.751          38.01          70.37         -108.3          93.73          61.87
     2.475              -31.11          27.24          5.448          42.05         -16.24          5.934          39.99           71.0         -112.0          93.39           61.2
     2.517              -30.93          27.11          5.124          41.84          -16.5           6.08          41.58          71.51         -115.0          93.12          60.67
     2.558              -30.78           27.0          4.861          41.68          -16.7          6.199          42.86          71.92         -117.4           92.9          60.24
     2.599              -30.65          26.91          4.645          41.54         -16.87          6.296          43.92          72.26         -119.4          92.72          59.88
      2.64              -30.55          26.83          4.468          41.43         -17.01          6.376          44.79          72.53         -121.0          92.57          59.59
